<mxfile host="app.diagrams.net" modified="2023-01-18T08:48:57.859Z" agent="5.0 (Windows NT 10.0; Win64; x64) AppleWebKit/537.36 (KHTML, like Gecko) Chrome/108.0.0.0 Safari/537.36" version="20.8.5" etag="KwXtGBTTxcW2E7iRXSlz" type="github">
  <diagram id="SwB-V6DmJMYonUJmDzV9" name="Page-1">
    <mxGraphModel dx="2284" dy="788" grid="1" gridSize="10" guides="1" tooltips="1" connect="1" arrows="1" fold="1" page="1" pageScale="1" pageWidth="850" pageHeight="1100" math="0" shadow="0">
      <root>
        <mxCell id="0" />
        <mxCell id="1" parent="0" />
        <mxCell id="jfGHQn-JiT_-VLL9edhB-3" style="edgeStyle=orthogonalEdgeStyle;rounded=0;orthogonalLoop=1;jettySize=auto;html=1;entryX=0;entryY=0;entryDx=0;entryDy=27.5;entryPerimeter=0;" edge="1" parent="1" source="jfGHQn-JiT_-VLL9edhB-1" target="jfGHQn-JiT_-VLL9edhB-2">
          <mxGeometry relative="1" as="geometry">
            <mxPoint x="160" y="80" as="targetPoint" />
            <Array as="points">
              <mxPoint x="160" y="78" />
              <mxPoint x="200" y="78" />
            </Array>
          </mxGeometry>
        </mxCell>
        <mxCell id="jfGHQn-JiT_-VLL9edhB-11" style="edgeStyle=orthogonalEdgeStyle;rounded=0;orthogonalLoop=1;jettySize=auto;html=1;entryX=0;entryY=0.5;entryDx=0;entryDy=0;" edge="1" parent="1" source="jfGHQn-JiT_-VLL9edhB-1" target="jfGHQn-JiT_-VLL9edhB-4">
          <mxGeometry relative="1" as="geometry" />
        </mxCell>
        <mxCell id="jfGHQn-JiT_-VLL9edhB-1" value="Start app" style="whiteSpace=wrap;html=1;aspect=fixed;" vertex="1" parent="1">
          <mxGeometry x="120" y="210" width="80" height="80" as="geometry" />
        </mxCell>
        <mxCell id="jfGHQn-JiT_-VLL9edhB-5" value="" style="edgeStyle=orthogonalEdgeStyle;rounded=0;orthogonalLoop=1;jettySize=auto;html=1;" edge="1" parent="1" source="jfGHQn-JiT_-VLL9edhB-2" target="jfGHQn-JiT_-VLL9edhB-4">
          <mxGeometry relative="1" as="geometry" />
        </mxCell>
        <mxCell id="jfGHQn-JiT_-VLL9edhB-2" value="Class codes" style="shape=cylinder3;whiteSpace=wrap;html=1;boundedLbl=1;backgroundOutline=1;size=15;" vertex="1" parent="1">
          <mxGeometry x="220" y="50" width="60" height="80" as="geometry" />
        </mxCell>
        <mxCell id="jfGHQn-JiT_-VLL9edhB-9" value="" style="edgeStyle=orthogonalEdgeStyle;rounded=0;orthogonalLoop=1;jettySize=auto;html=1;" edge="1" parent="1" source="jfGHQn-JiT_-VLL9edhB-4" target="jfGHQn-JiT_-VLL9edhB-8">
          <mxGeometry relative="1" as="geometry" />
        </mxCell>
        <mxCell id="jfGHQn-JiT_-VLL9edhB-17" value="" style="edgeStyle=orthogonalEdgeStyle;rounded=0;orthogonalLoop=1;jettySize=auto;html=1;" edge="1" parent="1" source="jfGHQn-JiT_-VLL9edhB-4" target="jfGHQn-JiT_-VLL9edhB-16">
          <mxGeometry relative="1" as="geometry" />
        </mxCell>
        <mxCell id="jfGHQn-JiT_-VLL9edhB-4" value="DashBoard" style="whiteSpace=wrap;html=1;" vertex="1" parent="1">
          <mxGeometry x="340" y="220" width="120" height="60" as="geometry" />
        </mxCell>
        <mxCell id="jfGHQn-JiT_-VLL9edhB-15" style="edgeStyle=orthogonalEdgeStyle;rounded=0;orthogonalLoop=1;jettySize=auto;html=1;entryX=0.75;entryY=0;entryDx=0;entryDy=0;" edge="1" parent="1" source="jfGHQn-JiT_-VLL9edhB-6" target="jfGHQn-JiT_-VLL9edhB-4">
          <mxGeometry relative="1" as="geometry" />
        </mxCell>
        <mxCell id="jfGHQn-JiT_-VLL9edhB-6" value="Activities&amp;nbsp;" style="shape=cylinder3;whiteSpace=wrap;html=1;boundedLbl=1;backgroundOutline=1;size=15;" vertex="1" parent="1">
          <mxGeometry x="530" y="50" width="60" height="80" as="geometry" />
        </mxCell>
        <mxCell id="jfGHQn-JiT_-VLL9edhB-10" style="edgeStyle=orthogonalEdgeStyle;rounded=0;orthogonalLoop=1;jettySize=auto;html=1;entryX=1;entryY=0.5;entryDx=0;entryDy=0;entryPerimeter=0;" edge="1" parent="1" source="jfGHQn-JiT_-VLL9edhB-8" target="jfGHQn-JiT_-VLL9edhB-6">
          <mxGeometry relative="1" as="geometry">
            <Array as="points">
              <mxPoint x="740" y="250" />
              <mxPoint x="740" y="90" />
            </Array>
          </mxGeometry>
        </mxCell>
        <mxCell id="jfGHQn-JiT_-VLL9edhB-8" value="New Event" style="whiteSpace=wrap;html=1;" vertex="1" parent="1">
          <mxGeometry x="540" y="220" width="120" height="60" as="geometry" />
        </mxCell>
        <mxCell id="jfGHQn-JiT_-VLL9edhB-12" value="Verify" style="text;html=1;strokeColor=none;fillColor=none;align=center;verticalAlign=middle;whiteSpace=wrap;rounded=0;" vertex="1" parent="1">
          <mxGeometry x="140" y="40" width="60" height="30" as="geometry" />
        </mxCell>
        <mxCell id="jfGHQn-JiT_-VLL9edhB-13" value="Fetch" style="text;html=1;strokeColor=none;fillColor=none;align=center;verticalAlign=middle;whiteSpace=wrap;rounded=0;" vertex="1" parent="1">
          <mxGeometry x="425" y="180" width="60" height="30" as="geometry" />
        </mxCell>
        <mxCell id="jfGHQn-JiT_-VLL9edhB-14" value="Add" style="text;html=1;strokeColor=none;fillColor=none;align=center;verticalAlign=middle;whiteSpace=wrap;rounded=0;" vertex="1" parent="1">
          <mxGeometry x="700" y="260" width="60" height="30" as="geometry" />
        </mxCell>
        <mxCell id="jfGHQn-JiT_-VLL9edhB-19" value="" style="edgeStyle=orthogonalEdgeStyle;rounded=0;orthogonalLoop=1;jettySize=auto;html=1;" edge="1" parent="1" source="jfGHQn-JiT_-VLL9edhB-16" target="jfGHQn-JiT_-VLL9edhB-18">
          <mxGeometry relative="1" as="geometry" />
        </mxCell>
        <mxCell id="jfGHQn-JiT_-VLL9edhB-16" value="Select event" style="whiteSpace=wrap;html=1;" vertex="1" parent="1">
          <mxGeometry x="340" y="360" width="120" height="60" as="geometry" />
        </mxCell>
        <mxCell id="jfGHQn-JiT_-VLL9edhB-20" style="edgeStyle=orthogonalEdgeStyle;rounded=0;orthogonalLoop=1;jettySize=auto;html=1;" edge="1" parent="1" source="jfGHQn-JiT_-VLL9edhB-18" target="jfGHQn-JiT_-VLL9edhB-6">
          <mxGeometry relative="1" as="geometry">
            <Array as="points">
              <mxPoint x="820" y="530" />
              <mxPoint x="820" y="10" />
              <mxPoint x="560" y="10" />
            </Array>
          </mxGeometry>
        </mxCell>
        <mxCell id="jfGHQn-JiT_-VLL9edhB-24" style="edgeStyle=orthogonalEdgeStyle;rounded=0;orthogonalLoop=1;jettySize=auto;html=1;" edge="1" parent="1" source="jfGHQn-JiT_-VLL9edhB-18">
          <mxGeometry relative="1" as="geometry">
            <mxPoint x="400" y="680" as="targetPoint" />
          </mxGeometry>
        </mxCell>
        <mxCell id="jfGHQn-JiT_-VLL9edhB-18" value="Participating?" style="rhombus;whiteSpace=wrap;html=1;" vertex="1" parent="1">
          <mxGeometry x="360" y="490" width="80" height="80" as="geometry" />
        </mxCell>
        <mxCell id="jfGHQn-JiT_-VLL9edhB-21" value="Yes No" style="text;html=1;strokeColor=none;fillColor=none;align=center;verticalAlign=middle;whiteSpace=wrap;rounded=0;" vertex="1" parent="1">
          <mxGeometry x="440" y="490" width="60" height="30" as="geometry" />
        </mxCell>
        <mxCell id="jfGHQn-JiT_-VLL9edhB-22" value="Update participating" style="text;html=1;strokeColor=none;fillColor=none;align=center;verticalAlign=middle;whiteSpace=wrap;rounded=0;" vertex="1" parent="1">
          <mxGeometry x="620" y="20" width="60" height="30" as="geometry" />
        </mxCell>
        <mxCell id="jfGHQn-JiT_-VLL9edhB-23" value="Yes if..." style="text;html=1;strokeColor=none;fillColor=none;align=center;verticalAlign=middle;whiteSpace=wrap;rounded=0;" vertex="1" parent="1">
          <mxGeometry x="340" y="590" width="60" height="30" as="geometry" />
        </mxCell>
        <mxCell id="jfGHQn-JiT_-VLL9edhB-26" style="edgeStyle=orthogonalEdgeStyle;rounded=0;orthogonalLoop=1;jettySize=auto;html=1;" edge="1" parent="1" source="jfGHQn-JiT_-VLL9edhB-25">
          <mxGeometry relative="1" as="geometry">
            <mxPoint x="670" y="540" as="targetPoint" />
          </mxGeometry>
        </mxCell>
        <mxCell id="jfGHQn-JiT_-VLL9edhB-25" value="Participating logic" style="rounded=0;whiteSpace=wrap;html=1;" vertex="1" parent="1">
          <mxGeometry x="350" y="680" width="120" height="60" as="geometry" />
        </mxCell>
        <mxCell id="jfGHQn-JiT_-VLL9edhB-27" value="mySQL" style="text;html=1;strokeColor=none;fillColor=none;align=center;verticalAlign=middle;whiteSpace=wrap;rounded=0;" vertex="1" parent="1">
          <mxGeometry x="290" y="50" width="60" height="30" as="geometry" />
        </mxCell>
        <mxCell id="jfGHQn-JiT_-VLL9edhB-28" value="mySQL" style="text;html=1;strokeColor=none;fillColor=none;align=center;verticalAlign=middle;whiteSpace=wrap;rounded=0;" vertex="1" parent="1">
          <mxGeometry x="460" y="50" width="60" height="30" as="geometry" />
        </mxCell>
        <mxCell id="jfGHQn-JiT_-VLL9edhB-29" value="NodeJS" style="text;html=1;strokeColor=none;fillColor=none;align=center;verticalAlign=middle;whiteSpace=wrap;rounded=0;" vertex="1" parent="1">
          <mxGeometry x="440" y="650" width="60" height="30" as="geometry" />
        </mxCell>
        <mxCell id="jfGHQn-JiT_-VLL9edhB-31" style="edgeStyle=orthogonalEdgeStyle;rounded=0;orthogonalLoop=1;jettySize=auto;html=1;" edge="1" parent="1" source="jfGHQn-JiT_-VLL9edhB-30" target="jfGHQn-JiT_-VLL9edhB-1">
          <mxGeometry relative="1" as="geometry" />
        </mxCell>
        <mxCell id="jfGHQn-JiT_-VLL9edhB-30" value="Login and startup" style="rounded=0;whiteSpace=wrap;html=1;" vertex="1" parent="1">
          <mxGeometry x="-130" y="220" width="120" height="60" as="geometry" />
        </mxCell>
        <mxCell id="jfGHQn-JiT_-VLL9edhB-32" value="" style="endArrow=none;html=1;rounded=0;" edge="1" parent="1">
          <mxGeometry width="50" height="50" relative="1" as="geometry">
            <mxPoint y="760" as="sourcePoint" />
            <mxPoint y="10" as="targetPoint" />
          </mxGeometry>
        </mxCell>
      </root>
    </mxGraphModel>
  </diagram>
</mxfile>
